<svg width="31" height="23" viewBox="0 0 31 23" fill="none" xmlns="http://www.w3.org/2000/svg">
<g clip-path="url(#clip0_36_22)">
<path d="M25.75 12C26.2332 12 26.625 11.6642 26.625 11.25C26.625 10.8358 26.2332 10.5 25.75 10.5C25.2668 10.5 24.875 10.8358 24.875 11.25C24.875 11.6642 25.2668 12 25.75 12Z" stroke="#C50000" stroke-width="0.5" stroke-linecap="round" stroke-linejoin="round"/>
<path d="M28.6665 12C29.1498 12 29.5415 11.6642 29.5415 11.25C29.5415 10.8358 29.1498 10.5 28.6665 10.5C28.1833 10.5 27.7915 10.8358 27.7915 11.25C27.7915 11.6642 28.1833 12 28.6665 12Z" stroke="#C50000" stroke-width="0.5" stroke-linecap="round" stroke-linejoin="round"/>
<path d="M26.625 11.25V8H29.5417V11.25" stroke="#C50000" stroke-width="0.5" stroke-linecap="round" stroke-linejoin="round"/>
<path d="M26.625 9H29.5417" stroke="#C50000" stroke-width="0.5" stroke-linecap="round" stroke-linejoin="round"/>
</g>
<path d="M4.17145 8.82L5.75545 3.6H6.79945V12H6.15145V5.016H5.99545L4.59145 9.528H3.54745L2.15545 5.016H2.01145V12H1.37545V3.6H2.41945L3.97945 8.82H4.17145ZM8.66423 11.112C8.56823 10.912 8.51223 10.712 8.49623 10.512C8.48023 10.304 8.47223 10.092 8.47223 9.876V6H9.09623V10.248C9.09623 10.456 9.12423 10.64 9.18023 10.8C9.24423 10.952 9.32423 11.08 9.42023 11.184C9.52423 11.288 9.64023 11.368 9.76823 11.424C9.89623 11.48 10.0282 11.508 10.1642 11.508C10.4202 11.508 10.6762 11.464 10.9322 11.376C11.1962 11.28 11.4002 11.18 11.5442 11.076V6H12.1562V11.4L12.4202 11.652L11.9882 12.084L11.6282 11.724C11.3962 11.852 11.1482 11.944 10.8842 12C10.6202 12.064 10.3842 12.096 10.1762 12.096C9.88823 12.096 9.60423 12.024 9.32423 11.88C9.04423 11.728 8.82423 11.472 8.66423 11.112ZM16.9519 10.344C16.9519 10.936 16.8039 11.38 16.5079 11.676C16.2119 11.972 15.8319 12.12 15.3679 12.12C15.2239 12.12 15.0759 12.108 14.9239 12.084C14.7719 12.06 14.6199 12.016 14.4679 11.952L13.4719 11.556L13.7119 11.028L14.6959 11.424C14.8159 11.472 14.9319 11.508 15.0439 11.532C15.1639 11.548 15.2759 11.556 15.3799 11.556C15.6599 11.556 15.8959 11.448 16.0879 11.232C16.2799 11.016 16.3759 10.704 16.3759 10.296C16.3759 10.128 16.3399 9.984 16.2679 9.864C16.2039 9.744 16.1199 9.648 16.0159 9.576C15.9199 9.496 15.8079 9.44 15.6799 9.408C15.5599 9.368 15.4479 9.348 15.3439 9.348C15.0559 9.348 14.7959 9.324 14.5639 9.276C14.3319 9.22 14.1319 9.128 13.9639 9C13.8039 8.864 13.6799 8.688 13.5919 8.472C13.5039 8.256 13.4599 7.984 13.4599 7.656C13.4599 7.072 13.6159 6.632 13.9279 6.336C14.2479 6.032 14.6399 5.88 15.1039 5.88C15.2399 5.88 15.3799 5.9 15.5239 5.94C15.6759 5.972 15.8319 6.016 15.9919 6.072L16.3879 6.216L16.1599 6.732C15.9679 6.66 15.8119 6.608 15.6919 6.576C15.5799 6.536 15.4879 6.508 15.4159 6.492C15.3519 6.476 15.2999 6.468 15.2599 6.468C15.2279 6.46 15.1919 6.456 15.1519 6.456H15.0919C14.8119 6.456 14.5639 6.568 14.3479 6.792C14.1399 7.008 14.0359 7.316 14.0359 7.716C14.0359 7.884 14.0719 8.032 14.1439 8.16C14.2159 8.288 14.3079 8.4 14.4199 8.496C14.5319 8.584 14.6479 8.652 14.7679 8.7C14.8959 8.74 15.0159 8.76 15.1279 8.76C15.3759 8.76 15.6119 8.784 15.8359 8.832C16.0599 8.872 16.2519 8.952 16.4119 9.072C16.5799 9.184 16.7119 9.344 16.8079 9.552C16.9039 9.76 16.9519 10.024 16.9519 10.344ZM18.0239 3.6H18.6599V4.536H18.0239V3.6ZM18.0239 6H18.6599V12H18.0239V6ZM20.6838 10.224C20.6838 10.416 20.7158 10.592 20.7798 10.752C20.8518 10.904 20.9478 11.036 21.0678 11.148C21.1878 11.26 21.3238 11.348 21.4758 11.412C21.6358 11.468 21.8038 11.496 21.9798 11.496C22.0598 11.496 22.1598 11.488 22.2798 11.472C22.3998 11.448 22.5158 11.424 22.6278 11.4C22.7638 11.368 22.9038 11.332 23.0478 11.292L23.2398 11.844C23.0798 11.9 22.9278 11.944 22.7838 11.976C22.6558 12.008 22.5158 12.036 22.3638 12.06C22.2198 12.084 22.0918 12.096 21.9798 12.096C21.7158 12.096 21.4678 12.052 21.2358 11.964C21.0118 11.868 20.8118 11.736 20.6358 11.568C20.4678 11.4 20.3318 11.204 20.2278 10.98C20.1318 10.748 20.0838 10.496 20.0838 10.224V7.716C20.0838 7.444 20.1318 7.196 20.2278 6.972C20.3318 6.74 20.4678 6.544 20.6358 6.384C20.8038 6.224 20.9998 6.1 21.2238 6.012C21.4558 5.916 21.7038 5.868 21.9678 5.868C22.0958 5.868 22.2278 5.884 22.3638 5.916C22.5078 5.948 22.6398 5.984 22.7598 6.024C22.9038 6.064 23.0438 6.112 23.1798 6.168L23.0358 6.684C22.9158 6.644 22.7918 6.608 22.6638 6.576C22.5518 6.544 22.4358 6.516 22.3158 6.492C22.1958 6.468 22.0798 6.456 21.9678 6.456C21.6158 6.456 21.3118 6.572 21.0558 6.804C20.8078 7.028 20.6838 7.332 20.6838 7.716V10.224Z" fill="url(#paint0_linear_36_22)"/>
<path d="M6.15113 11.6H6.82313V15.404H9.75113V11.6H10.4351V19.988H9.75113V16.112H6.82313V19.988H6.15113V11.6ZM15.1709 18.272V15.668C15.1709 15.404 15.1229 15.196 15.0269 15.044C14.9309 14.884 14.8149 14.764 14.6789 14.684C14.5509 14.596 14.4109 14.54 14.2589 14.516C14.1149 14.484 13.9909 14.468 13.8869 14.468C13.7829 14.468 13.6549 14.484 13.5029 14.516C13.3589 14.54 13.2189 14.596 13.0829 14.684C12.9469 14.764 12.8309 14.884 12.7349 15.044C12.6389 15.196 12.5909 15.404 12.5909 15.668V18.272C12.5909 18.536 12.6389 18.748 12.7349 18.908C12.8309 19.06 12.9469 19.18 13.0829 19.268C13.2189 19.356 13.3589 19.416 13.5029 19.448C13.6549 19.472 13.7829 19.484 13.8869 19.484C13.9909 19.484 14.1149 19.472 14.2589 19.448C14.4109 19.416 14.5509 19.356 14.6789 19.268C14.8149 19.18 14.9309 19.06 15.0269 18.908C15.1229 18.748 15.1709 18.536 15.1709 18.272ZM15.7229 18.356C15.7229 18.724 15.6549 19.02 15.5189 19.244C15.3829 19.468 15.2189 19.644 15.0269 19.772C14.8349 19.892 14.6349 19.972 14.4269 20.012C14.2189 20.052 14.0389 20.072 13.8869 20.072C13.7349 20.072 13.5549 20.052 13.3469 20.012C13.1389 19.972 12.9389 19.892 12.7469 19.772C12.5549 19.644 12.3909 19.468 12.2549 19.244C12.1189 19.02 12.0509 18.724 12.0509 18.356V15.584C12.0509 15.216 12.1189 14.92 12.2549 14.696C12.3909 14.472 12.5549 14.3 12.7469 14.18C12.9389 14.06 13.1389 13.98 13.3469 13.94C13.5549 13.9 13.7349 13.88 13.8869 13.88C14.0389 13.88 14.2189 13.9 14.4269 13.94C14.6349 13.98 14.8349 14.06 15.0269 14.18C15.2189 14.3 15.3829 14.472 15.5189 14.696C15.6549 14.92 15.7229 15.216 15.7229 15.584V18.356ZM17.3185 19.112C17.2225 18.912 17.1665 18.712 17.1505 18.512C17.1345 18.304 17.1265 18.092 17.1265 17.876V14H17.7505V18.248C17.7505 18.456 17.7785 18.64 17.8345 18.8C17.8985 18.952 17.9785 19.08 18.0745 19.184C18.1785 19.288 18.2945 19.368 18.4225 19.424C18.5505 19.48 18.6825 19.508 18.8185 19.508C19.0745 19.508 19.3305 19.464 19.5865 19.376C19.8505 19.28 20.0545 19.18 20.1985 19.076V14H20.8105V19.4L21.0745 19.652L20.6425 20.084L20.2825 19.724C20.0505 19.852 19.8025 19.944 19.5385 20C19.2745 20.064 19.0385 20.096 18.8305 20.096C18.5425 20.096 18.2585 20.024 17.9785 19.88C17.6985 19.728 17.4785 19.472 17.3185 19.112ZM25.6062 18.344C25.6062 18.936 25.4582 19.38 25.1622 19.676C24.8662 19.972 24.4862 20.12 24.0222 20.12C23.8782 20.12 23.7302 20.108 23.5782 20.084C23.4262 20.06 23.2742 20.016 23.1222 19.952L22.1262 19.556L22.3662 19.028L23.3502 19.424C23.4702 19.472 23.5862 19.508 23.6982 19.532C23.8182 19.548 23.9302 19.556 24.0342 19.556C24.3142 19.556 24.5502 19.448 24.7422 19.232C24.9342 19.016 25.0302 18.704 25.0302 18.296C25.0302 18.128 24.9942 17.984 24.9222 17.864C24.8582 17.744 24.7742 17.648 24.6702 17.576C24.5742 17.496 24.4622 17.44 24.3342 17.408C24.2142 17.368 24.1022 17.348 23.9982 17.348C23.7102 17.348 23.4502 17.324 23.2182 17.276C22.9862 17.22 22.7862 17.128 22.6182 17C22.4582 16.864 22.3342 16.688 22.2462 16.472C22.1582 16.256 22.1142 15.984 22.1142 15.656C22.1142 15.072 22.2702 14.632 22.5822 14.336C22.9022 14.032 23.2942 13.88 23.7582 13.88C23.8942 13.88 24.0342 13.9 24.1782 13.94C24.3302 13.972 24.4862 14.016 24.6462 14.072L25.0422 14.216L24.8142 14.732C24.6222 14.66 24.4662 14.608 24.3462 14.576C24.2342 14.536 24.1422 14.508 24.0702 14.492C24.0062 14.476 23.9542 14.468 23.9142 14.468C23.8822 14.46 23.8462 14.456 23.8062 14.456H23.7462C23.4662 14.456 23.2182 14.568 23.0022 14.792C22.7942 15.008 22.6902 15.316 22.6902 15.716C22.6902 15.884 22.7262 16.032 22.7982 16.16C22.8702 16.288 22.9622 16.4 23.0742 16.496C23.1862 16.584 23.3022 16.652 23.4222 16.7C23.5502 16.74 23.6702 16.76 23.7822 16.76C24.0302 16.76 24.2662 16.784 24.4902 16.832C24.7142 16.872 24.9062 16.952 25.0662 17.072C25.2342 17.184 25.3662 17.344 25.4622 17.552C25.5582 17.76 25.6062 18.024 25.6062 18.344ZM28.6102 17.108H28.6342C28.7782 17.108 28.9102 17.08 29.0302 17.024C29.1502 16.96 29.2542 16.88 29.3422 16.784C29.4302 16.68 29.4982 16.564 29.5462 16.436C29.6022 16.308 29.6302 16.172 29.6302 16.028V15.524C29.6302 15.332 29.5942 15.172 29.5222 15.044C29.4502 14.908 29.3542 14.8 29.2342 14.72C29.1222 14.64 28.9862 14.584 28.8262 14.552C28.6742 14.512 28.5142 14.492 28.3462 14.492C28.1942 14.492 28.0462 14.516 27.9022 14.564C27.7662 14.612 27.6462 14.68 27.5422 14.768C27.4382 14.856 27.3542 14.964 27.2902 15.092C27.2262 15.22 27.1942 15.364 27.1942 15.524V17.096L28.6102 17.108ZM26.5702 15.584C26.5702 15.344 26.6102 15.12 26.6902 14.912C26.7782 14.704 26.8942 14.524 27.0382 14.372C27.1902 14.22 27.3622 14.1 27.5542 14.012C27.7542 13.924 27.9702 13.88 28.2022 13.88H28.6102C28.8342 13.88 29.0462 13.924 29.2462 14.012C29.4462 14.1 29.6222 14.22 29.7742 14.372C29.9262 14.524 30.0422 14.704 30.1222 14.912C30.2102 15.12 30.2542 15.344 30.2542 15.584V15.98C30.2542 16.316 30.1942 16.6 30.0742 16.832C29.9542 17.056 29.7902 17.24 29.5822 17.384C29.3742 17.528 29.1302 17.632 28.8502 17.696C28.5782 17.752 28.2862 17.78 27.9742 17.78C27.8462 17.78 27.7182 17.776 27.5902 17.768C27.4622 17.76 27.3302 17.748 27.1942 17.732V18.452C27.2502 18.772 27.3982 19.028 27.6382 19.22C27.8862 19.404 28.1662 19.496 28.4782 19.496C28.5102 19.496 28.6102 19.48 28.7782 19.448C28.9542 19.408 29.1382 19.368 29.3302 19.328C29.5542 19.28 29.8022 19.224 30.0742 19.16L30.2182 19.796C29.9222 19.86 29.6542 19.912 29.4142 19.952C29.2062 19.992 29.0062 20.028 28.8142 20.06C28.6302 20.092 28.5182 20.108 28.4782 20.108C28.2222 20.108 27.9782 20.064 27.7462 19.976C27.5142 19.88 27.3102 19.748 27.1342 19.58C26.9582 19.412 26.8182 19.216 26.7142 18.992C26.6182 18.76 26.5702 18.508 26.5702 18.236V15.584Z" fill="url(#paint1_linear_36_22)"/>
<defs>
<linearGradient id="paint0_linear_36_22" x1="12" y1="-7.5" x2="12" y2="16" gradientUnits="userSpaceOnUse">
<stop stop-color="#AD0000"/>
<stop offset="0.521141" stop-color="#980000" stop-opacity="0.66"/>
<stop offset="0.937903"/>
</linearGradient>
<linearGradient id="paint1_linear_36_22" x1="17" y1="11" x2="16.5" y2="30" gradientUnits="userSpaceOnUse">
<stop/>
<stop offset="0.501483" stop-color="#980000" stop-opacity="0.66"/>
<stop offset="1" stop-color="#AD0000"/>
</linearGradient>
<clipPath id="clip0_36_22">
<rect x="24" y="7" width="7" height="6" fill="white"/>
</clipPath>
</defs>
</svg>
